<svg width="146" height="136" viewBox="0 0 146 136" fill="none" xmlns="http://www.w3.org/2000/svg">
<ellipse cx="4" cy="107.5" rx="1" ry="1.5" fill="#F6F6F6" fill-opacity="0.3"/>
<rect x="2" y="2" width="141.379" height="132" rx="31" stroke="#EE3CE7" stroke-width="4"/>
<path d="M119.767 29.8054L123.43 33.4678M125.261 20.6494C125.982 21.3707 126.555 22.2272 126.945 23.1698C127.336 24.1124 127.537 25.1227 127.537 26.143C127.537 27.1633 127.336 28.1736 126.945 29.1162C126.555 30.0588 125.982 30.9152 125.261 31.6366L90.4679 66.4293L75.8184 70.0917L79.4808 55.6472L114.288 20.664C115.66 19.2854 117.5 18.473 119.443 18.3882C121.386 18.3034 123.29 18.9524 124.777 20.2062L125.261 20.6494Z" stroke="#18031B" stroke-width="4.7619" stroke-linecap="round" stroke-linejoin="round"/>
<g clip-path="url(#clip0_1157_59)">
<path d="M109.338 53.5633L86.3475 51.5858L77.37 30.6338C75.755 26.82 70.245 26.82 68.63 30.6338L59.6525 51.6329L36.71 53.5633C32.53 53.8929 30.82 59.0721 34.0025 61.8029L51.435 76.7754L46.21 98.9988C45.26 103.048 49.6775 106.25 53.2875 104.084L73 92.3129L92.7125 104.131C96.3225 106.297 100.74 103.095 99.79 99.0458L94.565 76.7754L111.998 61.8029C115.18 59.0721 113.518 53.8929 109.338 53.5633ZM73 83.5083L55.14 94.1963L59.89 74.0446L44.12 60.4846L64.925 58.6954L73 39.7208L81.1225 58.7425L101.928 60.5317L86.1575 74.0917L90.9075 94.2433L73 83.5083Z" fill="white"/>
</g>
<path d="M119.767 29.8054L123.43 33.4678M125.261 20.6494C125.982 21.3707 126.555 22.2272 126.945 23.1698C127.336 24.1124 127.537 25.1227 127.537 26.143C127.537 27.1633 127.336 28.1736 126.945 29.1162C126.555 30.0588 125.982 30.9152 125.261 31.6366L90.4679 66.4293L75.8184 70.0917L79.4808 55.6472L114.288 20.664C115.66 19.2854 117.5 18.473 119.443 18.3882C121.386 18.3034 123.29 18.9524 124.777 20.2062L125.261 20.6494Z" stroke="#AA08C5" stroke-width="4.7619" stroke-linecap="round" stroke-linejoin="round"/>
<defs>
<clipPath id="clip0_1157_59">
<rect width="114" height="113" fill="white" transform="translate(16 11)"/>
</clipPath>
</defs>
</svg>
