<svg width="149" height="149" viewBox="0 0 149 149" fill="none" xmlns="http://www.w3.org/2000/svg">
<g clip-path="url(#clip0_1158_83)">
<path d="M111.338 60.5633L88.3475 58.5858L79.37 37.6338C77.755 33.82 72.245 33.82 70.63 37.6338L61.6525 58.6329L38.71 60.5633C34.53 60.8929 32.82 66.0721 36.0025 68.8029L53.435 83.7754L48.21 105.999C47.26 110.048 51.6775 113.25 55.2875 111.084L75 99.3129L94.7125 111.131C98.3225 113.297 102.74 110.095 101.79 106.046L96.565 83.7754L113.998 68.8029C117.18 66.0721 115.518 60.8929 111.338 60.5633ZM75 90.5083L57.14 101.196L61.89 81.0446L46.12 67.4846L66.925 65.6954L75 46.7208L83.1225 65.7425L103.928 67.5317L88.1575 81.0917L92.9075 101.243L75 90.5083Z" fill="#BA97FF"/>
</g>
<path d="M121.767 39.8054L125.43 43.4678M127.261 30.6494C127.982 31.3707 128.555 32.2272 128.945 33.1698C129.336 34.1124 129.537 35.1227 129.537 36.143C129.537 37.1633 129.336 38.1736 128.945 39.1162C128.555 40.0588 127.982 40.9152 127.261 41.6366L92.4679 76.4293L77.8184 80.0917L81.4808 65.6472L116.288 30.664C117.66 29.2854 119.5 28.473 121.443 28.3882C123.386 28.3034 125.29 28.9524 126.777 30.2062L127.261 30.6494Z" stroke="white" stroke-width="3" stroke-linecap="round" stroke-linejoin="round"/>
<circle cx="74.5" cy="74.5" r="73" stroke="white" stroke-width="3"/>
<defs>
<clipPath id="clip0_1158_83">
<rect width="114" height="113" fill="white" transform="translate(18 18)"/>
</clipPath>
</defs>
</svg>
