<svg width="165" height="165" viewBox="0 0 165 165" fill="none" xmlns="http://www.w3.org/2000/svg">
<path d="M65.5 62C65.5 54.2781 71.7781 48 79.5 48H86.5C94.2219 48 100.5 54.2781 100.5 62V62.7875C100.5 67.5563 98.0719 71.9969 94.0688 74.5562L84.8375 80.4844C82.1271 82.2271 79.8976 84.6224 78.3535 87.4506C76.8095 90.2789 76.0002 93.4496 76 96.6719V97C76 100.872 79.1281 104 83 104C86.8719 104 90 100.872 90 97V96.6938C90 94.9 90.9187 93.2375 92.4062 92.275L101.637 86.3469C109.644 81.1844 114.5 72.325 114.5 62.7875V62C114.5 46.5344 101.966 34 86.5 34H79.5C64.0344 34 51.5 46.5344 51.5 62C51.5 65.8719 54.6281 69 58.5 69C62.3719 69 65.5 65.8719 65.5 62ZM83 132C85.3206 132 87.5462 131.078 89.1872 129.437C90.8281 127.796 91.75 125.571 91.75 123.25C91.75 120.929 90.8281 118.704 89.1872 117.063C87.5462 115.422 85.3206 114.5 83 114.5C80.6794 114.5 78.4538 115.422 76.8128 117.063C75.1719 118.704 74.25 120.929 74.25 123.25C74.25 125.571 75.1719 127.796 76.8128 129.437C78.4538 131.078 80.6794 132 83 132Z" fill="white"/>
<circle cx="82.5" cy="82.5" r="80" stroke="white" stroke-width="5"/>
</svg>
