<svg width="22" height="23" viewBox="0 0 22 23" fill="none" xmlns="http://www.w3.org/2000/svg">
<path d="M15.7233 14.4654H14.7296L14.3774 14.1103C15.6101 12.6112 16.3522 10.665 16.3522 8.54774C16.3522 3.82676 12.6918 0 8.1761 0C3.66038 0 0 3.82676 0 8.54774C0 13.2687 3.66038 17.0955 8.1761 17.0955C10.2013 17.0955 12.0629 16.3196 13.4969 15.0309L13.8365 15.3991V16.438L20.1258 23L22 21.0406L15.7233 14.4654ZM8.1761 14.4654C5.04403 14.4654 2.51572 11.8222 2.51572 8.54774C2.51572 5.2733 5.04403 2.63007 8.1761 2.63007C11.3082 2.63007 13.8365 5.2733 13.8365 8.54774C13.8365 11.8222 11.3082 14.4654 8.1761 14.4654Z" fill="white"/>
</svg>
