<svg width="151" height="142" viewBox="0 0 151 142" fill="none" xmlns="http://www.w3.org/2000/svg">
<path d="M128.261 23.6494L129.944 21.9655C129.92 21.9412 129.895 21.9175 129.87 21.8943L128.261 23.6494ZM128.261 34.6366L126.577 32.9527L126.577 32.953L128.261 34.6366ZM93.4679 69.4293L94.0454 71.7392C94.4641 71.6345 94.8464 71.4181 95.1515 71.1129L93.4679 69.4293ZM78.8184 73.0917L76.5104 72.5066C76.3045 73.3186 76.5406 74.1791 77.132 74.7725C77.7234 75.3659 78.5831 75.6048 79.3958 75.4016L78.8184 73.0917ZM82.4808 58.6472L80.7929 56.9679C80.4919 57.2705 80.2777 57.6484 80.1728 58.0621L82.4808 58.6472ZM117.288 23.664L115.601 21.9845L115.6 21.9847L117.288 23.664ZM127.777 23.2062L129.386 21.4511C129.362 21.4289 129.337 21.4072 129.312 21.3861L127.777 23.2062ZM124.451 31.1218C123.521 30.192 122.013 30.192 121.084 31.1218C120.154 32.0516 120.154 33.5591 121.084 34.489L124.451 31.1218ZM124.746 38.1514C125.676 39.0812 127.183 39.0812 128.113 38.1514C129.043 37.2215 129.043 35.714 128.113 34.7842L124.746 38.1514ZM19 14V11.619H16.619V14H19ZM133 14H135.381V11.619H133V14ZM133 127V129.381H135.381V127H133ZM19 127H16.619V129.381H19V127ZM112.337 56.5633L112.133 58.9355L112.142 58.9363L112.15 58.9369L112.337 56.5633ZM89.3475 54.5858L87.159 55.5236L87.7212 56.8357L89.1435 56.958L89.3475 54.5858ZM80.37 33.6338L78.1775 34.5622L78.1815 34.5715L80.37 33.6338ZM71.63 33.6338L73.8193 34.5697L73.8225 34.5622L71.63 33.6338ZM62.6525 54.6329L62.8521 57.0055L64.2789 56.8854L64.8418 55.5689L62.6525 54.6329ZM39.71 56.5633L39.8972 58.937L39.9096 58.9359L39.71 56.5633ZM37.0025 64.8029L38.5538 62.9967L38.553 62.996L37.0025 64.8029ZM54.435 79.7754L56.7528 80.3204L57.0839 78.9119L55.9863 77.9692L54.435 79.7754ZM49.21 101.999L46.8922 101.454L46.892 101.455L49.21 101.999ZM56.2875 107.084L55.0668 105.04L55.0626 105.042L56.2875 107.084ZM76 95.3129L77.2243 93.2708L76.0024 92.5383L74.7793 93.2687L76 95.3129ZM95.7125 107.131L96.9374 105.089L96.9368 105.089L95.7125 107.131ZM102.79 102.046L100.472 102.59L100.472 102.59L102.79 102.046ZM97.565 79.7754L96.0137 77.9692L94.9167 78.9114L95.247 80.3193L97.565 79.7754ZM114.997 64.8029L113.447 62.996L113.446 62.9967L114.997 64.8029ZM76 86.5083L77.2242 84.4662L76.0011 83.733L74.7774 84.4653L76 86.5083ZM58.14 97.1963L55.8226 96.65L54.5306 102.131L59.3626 99.2393L58.14 97.1963ZM62.89 77.0446L65.2074 77.5908L65.5394 76.1826L64.4423 75.2393L62.89 77.0446ZM47.12 63.4846L46.916 61.1124L41.2736 61.5976L45.5677 65.2899L47.12 63.4846ZM67.925 61.6954L68.129 64.0676L69.5553 63.945L70.1158 62.6278L67.925 61.6954ZM76 42.7208L78.1897 41.7858L75.9963 36.6492L73.8092 41.7885L76 42.7208ZM84.1225 61.7425L81.9328 62.6775L82.4942 63.9922L83.9185 64.1147L84.1225 61.7425ZM104.927 63.5317L106.48 65.337L110.774 61.6447L105.131 61.1595L104.927 63.5317ZM89.1575 77.0917L87.6052 75.2863L86.5081 76.2297L86.8401 77.6379L89.1575 77.0917ZM93.9075 97.2433L92.6833 99.2855L97.5182 102.184L96.2249 96.6971L93.9075 97.2433ZM5.61905 110.5C5.61905 110.495 5.61955 110.474 5.62982 110.438C5.63943 110.404 5.66406 110.333 5.72603 110.24C5.82885 110.086 6.23237 109.619 7 109.619V114.381C8.31991 114.381 9.22343 113.578 9.68818 112.881C10.164 112.168 10.381 111.319 10.381 110.5H5.61905ZM7 109.619C7.76763 109.619 8.17115 110.086 8.27397 110.24C8.33594 110.333 8.36057 110.404 8.37018 110.438C8.38045 110.474 8.38095 110.495 8.38095 110.5H3.61905C3.61905 111.319 3.83598 112.168 4.31182 112.881C4.77657 113.578 5.68009 114.381 7 114.381V109.619ZM8.38095 110.5C8.38095 110.505 8.38045 110.526 8.37018 110.562C8.36057 110.596 8.33594 110.667 8.27397 110.76C8.17115 110.914 7.76763 111.381 7 111.381V106.619C5.68009 106.619 4.77657 107.422 4.31182 108.119C3.83598 108.832 3.61905 109.681 3.61905 110.5H8.38095ZM7 111.381C6.23237 111.381 5.82885 110.914 5.72603 110.76C5.66406 110.667 5.63943 110.596 5.62982 110.562C5.61955 110.526 5.61905 110.505 5.61905 110.5H10.381C10.381 109.681 10.164 108.832 9.68818 108.119C9.22343 107.422 8.31991 106.619 7 106.619V111.381ZM36 5.38095H115.379V0.619048H36V5.38095ZM145.998 36V106H150.76V36H145.998ZM115.379 136.619H36V141.381H115.379V136.619ZM5.38095 106V36H0.619048V106H5.38095ZM36 136.619C19.0896 136.619 5.38095 122.91 5.38095 106H0.619048C0.619048 125.54 16.4596 141.381 36 141.381V136.619ZM145.998 106C145.998 122.91 132.29 136.619 115.379 136.619V141.381C134.92 141.381 150.76 125.54 150.76 106H145.998ZM115.379 5.38095C132.29 5.38095 145.998 19.0896 145.998 36H150.76C150.76 16.4596 134.92 0.619048 115.379 0.619048V5.38095ZM36 0.619048C16.4596 0.619048 0.619048 16.4596 0.619048 36H5.38095C5.38095 19.0896 19.0896 5.38095 36 5.38095V0.619048ZM126.577 25.3332C127.078 25.8335 127.475 26.4274 127.746 27.0811L132.145 25.2584C131.635 24.0269 130.887 22.908 129.944 21.9655L126.577 25.3332ZM127.746 27.0811C128.016 27.7348 128.156 28.4354 128.156 29.143H132.918C132.918 27.8099 132.655 26.49 132.145 25.2584L127.746 27.0811ZM128.156 29.143C128.156 29.8505 128.016 30.5512 127.746 31.2049L132.145 33.0275C132.655 31.796 132.918 30.476 132.918 29.143H128.156ZM127.746 31.2049C127.475 31.8585 127.078 32.4525 126.577 32.9527L129.944 36.3204C130.887 35.378 131.635 34.259 132.145 33.0275L127.746 31.2049ZM126.577 32.953L91.7844 67.7457L95.1515 71.1129L129.944 36.3202L126.577 32.953ZM92.8905 67.1195L78.2409 70.7819L79.3958 75.4016L94.0454 71.7392L92.8905 67.1195ZM81.1263 73.6769L84.7887 59.2324L80.1728 58.0621L76.5104 72.5066L81.1263 73.6769ZM84.1686 60.3266L118.976 25.3434L115.6 21.9847L80.7929 56.9679L84.1686 60.3266ZM118.976 25.3435C119.926 24.3884 121.201 23.8257 122.547 23.7669L122.34 19.0095C119.799 19.1204 117.394 20.1823 115.601 21.9845L118.976 25.3435ZM122.547 23.7669C123.893 23.7082 125.212 24.1577 126.242 25.0264L129.312 21.3861C127.369 19.747 124.88 18.8987 122.34 19.0095L122.547 23.7669ZM126.168 24.9613L126.652 25.4045L129.87 21.8943L129.386 21.4511L126.168 24.9613ZM121.084 34.489L124.746 38.1514L128.113 34.7842L124.451 31.1218L121.084 34.489ZM19 16.381H133V11.619H19V16.381ZM130.619 14V127H135.381V14H130.619ZM133 124.619H19V129.381H133V124.619ZM21.381 127V14H16.619V127H21.381ZM112.542 54.1911L89.5515 52.2136L89.1435 56.958L112.133 58.9355L112.542 54.1911ZM91.536 53.6481L82.5585 32.696L78.1815 34.5715L87.159 55.5236L91.536 53.6481ZM82.5625 32.7053C80.1274 26.9549 71.8726 26.9549 69.4375 32.7053L73.8225 34.5622C74.6173 32.6851 77.3827 32.6851 78.1775 34.5622L82.5625 32.7053ZM69.4407 32.6978L60.4632 53.697L64.8418 55.5689L73.8193 34.5697L69.4407 32.6978ZM62.4529 52.2604L39.5104 54.1908L39.9096 58.9359L62.8521 57.0055L62.4529 52.2604ZM39.5228 54.1897C33.254 54.684 30.6444 62.4845 35.452 66.6098L38.553 62.996C36.9956 61.6597 37.806 59.1018 39.8972 58.9369L39.5228 54.1897ZM35.4512 66.6091L52.8837 81.5816L55.9863 77.9692L38.5538 62.9967L35.4512 66.6091ZM52.1172 79.2305L46.8922 101.454L51.5278 102.544L56.7528 80.3204L52.1172 79.2305ZM46.892 101.455C45.4505 107.599 52.1385 112.35 57.5124 109.125L55.0626 105.042C53.2165 106.15 51.0695 104.497 51.528 102.543L46.892 101.455ZM57.5082 109.128L77.2207 97.3572L74.7793 93.2687L55.0668 105.04L57.5082 109.128ZM74.7757 97.355L94.4882 109.173L96.9368 105.089L77.2243 93.2708L74.7757 97.355ZM94.4876 109.173C99.8615 112.397 106.55 107.646 105.108 101.502L100.472 102.59C100.93 104.544 98.7835 106.197 96.9374 105.089L94.4876 109.173ZM105.108 101.502L99.883 79.2316L95.247 80.3193L100.472 102.59L105.108 101.502ZM99.1163 81.5816L116.549 66.6091L113.446 62.9967L96.0137 77.9692L99.1163 81.5816ZM116.548 66.6098C121.315 62.519 118.846 54.6882 112.525 54.1897L112.15 58.9369C114.189 59.0976 115.045 61.6252 113.447 62.996L116.548 66.6098ZM74.7774 84.4653L56.9174 95.1532L59.3626 99.2393L77.2226 88.5514L74.7774 84.4653ZM60.4574 97.7425L65.2074 77.5908L60.5726 76.4983L55.8226 96.65L60.4574 97.7425ZM64.4423 75.2393L48.6723 61.6793L45.5677 65.2899L61.3377 78.8499L64.4423 75.2393ZM47.324 65.8568L68.129 64.0676L67.721 59.3232L46.916 61.1124L47.324 65.8568ZM70.1158 62.6278L78.1908 43.6532L73.8092 41.7885L65.7342 60.7631L70.1158 62.6278ZM73.8103 43.6559L81.9328 62.6775L86.3122 60.8075L78.1897 41.7858L73.8103 43.6559ZM83.9185 64.1147L104.723 65.9039L105.131 61.1595L84.3265 59.3703L83.9185 64.1147ZM103.375 61.7263L87.6052 75.2863L90.7098 78.897L106.48 65.337L103.375 61.7263ZM86.8401 77.6379L91.5901 97.7896L96.2249 96.6971L91.4749 76.5454L86.8401 77.6379ZM95.1317 95.2012L77.2242 84.4662L74.7758 88.5505L92.6833 99.2855L95.1317 95.2012Z" fill="#AA08C5"/>
</svg>
